<svg width="28" height="21" viewBox="0 0 28 21" fill="none" xmlns="http://www.w3.org/2000/svg">
<path d="M23.7829 1.25768C24.515 0.51958 25.7069 0.514749 26.445 1.24689C27.1831 1.97902 27.1879 3.17088 26.4558 3.90897L11.5333 18.9529C10.8012 19.691 9.6093 19.6958 8.8712 18.9637C8.13311 18.2316 8.12827 17.0397 8.86041 16.3016L23.7829 1.25768Z" fill="white"/>
<path d="M4.21907 8.98146C3.48693 8.24336 2.29508 8.23853 1.55698 8.97067C0.818887 9.70281 0.814055 10.8947 1.54619 11.6328L8.82862 18.9745C9.56076 19.7126 10.7526 19.7174 11.4907 18.9853C12.2288 18.2531 12.2336 17.0613 11.5015 16.3232L4.21907 8.98146Z" fill="white"/>
</svg>
