<svg width="26" height="26" viewBox="0 0 26 26" fill="none" xmlns="http://www.w3.org/2000/svg">
<path d="M12.9973 7.86903C10.1579 7.86903 7.86644 10.1606 7.86644 13C7.86644 15.8394 10.1579 18.131 12.9973 18.131C15.8367 18.131 18.1282 15.8394 18.1282 13C18.1282 10.1606 15.8367 7.86903 12.9973 7.86903ZM12.9973 16.3348C11.1611 16.3348 9.66262 14.8362 9.66262 13C9.66262 11.1638 11.1611 9.66525 12.9973 9.66525C14.8335 9.66525 16.332 11.1638 16.332 13C16.332 14.8362 14.8335 16.3348 12.9973 16.3348ZM18.3383 6.46308C17.6754 6.46308 17.14 6.99845 17.14 7.66139C17.14 8.32434 17.6754 8.8597 18.3383 8.8597C19.0013 8.8597 19.5366 8.32684 19.5366 7.66139C19.5368 7.50397 19.5059 7.34806 19.4458 7.20259C19.3856 7.05711 19.2974 6.92493 19.1861 6.81362C19.0748 6.70231 18.9426 6.61405 18.7971 6.5539C18.6516 6.49375 18.4957 6.46289 18.3383 6.46308ZM22.9989 13C22.9989 11.6191 23.0114 10.2506 22.9338 8.87221C22.8563 7.27113 22.4911 5.85017 21.3203 4.67938C20.147 3.50609 18.7286 3.14334 17.1275 3.06579C15.7466 2.98824 14.3782 3.00074 12.9998 3.00074C11.6189 3.00074 10.2505 2.98824 8.8721 3.06579C7.27105 3.14334 5.85012 3.50859 4.67935 4.67938C3.50608 5.85267 3.14334 7.27113 3.06579 8.87221C2.98824 10.2531 3.00074 11.6216 3.00074 13C3.00074 14.3784 2.98824 15.7494 3.06579 17.1278C3.14334 18.7289 3.50858 20.1498 4.67935 21.3206C5.85262 22.4939 7.27105 22.8567 8.8721 22.9342C10.253 23.0118 11.6214 22.9993 12.9998 22.9993C14.3807 22.9993 15.7491 23.0118 17.1275 22.9342C18.7286 22.8567 20.1495 22.4914 21.3203 21.3206C22.4936 20.1473 22.8563 18.7289 22.9338 17.1278C23.0139 15.7494 22.9989 14.3809 22.9989 13ZM20.7974 18.899C20.6148 19.3543 20.3947 19.6945 20.0419 20.0448C19.6892 20.3975 19.3515 20.6176 18.8962 20.8003C17.5803 21.3231 14.4558 21.2055 12.9973 21.2055C11.5389 21.2055 8.4118 21.3231 7.09593 20.8028C6.64064 20.6201 6.30041 20.4 5.95018 20.0473C5.59745 19.6945 5.37731 19.3568 5.19469 18.9015C4.67434 17.5831 4.79192 14.4585 4.79192 13C4.79192 11.5415 4.67434 8.4144 5.19469 7.09851C5.37731 6.6432 5.59745 6.30298 5.95018 5.95274C6.30291 5.6025 6.64064 5.37985 7.09593 5.19723C8.4118 4.67688 11.5389 4.79446 12.9973 4.79446C14.4558 4.79446 17.5828 4.67688 18.8987 5.19723C19.354 5.37985 19.6942 5.6 20.0444 5.95274C20.3972 6.30548 20.6173 6.6432 20.7999 7.09851C21.3203 8.4144 21.2027 11.5415 21.2027 13C21.2027 14.4585 21.3203 17.5831 20.7974 18.899Z" fill="#6518BF"/>
</svg>
