<svg width="24" height="19" viewBox="0 0 24 19" fill="none" xmlns="http://www.w3.org/2000/svg">
<path fill-rule="evenodd" clip-rule="evenodd" d="M0.24629 4.90946C-0.111758 8.18604 -0.0957978 11.965 0.402431 15.2283C0.678112 17.0339 2.17433 18.4182 4.02126 18.5763L5.95147 18.7416C9.97623 19.0861 14.0238 19.0861 18.0485 18.7416L19.9787 18.5763C21.8257 18.4182 23.3219 17.0339 23.5976 15.2283C24.0958 11.965 24.1118 8.18625 23.7537 4.90966C23.7074 4.5298 23.6554 4.15044 23.5976 3.77173C23.3219 1.96609 21.8257 0.581832 19.9787 0.423703L18.0485 0.258443C14.0238 -0.0861477 9.97623 -0.0861475 5.95147 0.258443L4.02126 0.423703C2.17433 0.581832 0.678112 1.96609 0.402431 3.77173C0.34462 4.15038 0.292573 4.52966 0.24629 4.90946ZM6.11749 2.13958C10.0318 1.80445 13.9682 1.80445 17.8825 2.13958L19.8127 2.30484C20.7768 2.38738 21.5578 3.10997 21.7017 4.05252C21.7167 4.1504 21.7312 4.24833 21.7454 4.3463L14.6379 8.23535C12.9974 9.13303 11.0025 9.13303 9.36199 8.23535L2.25462 4.34634C2.26876 4.24836 2.2833 4.15041 2.29825 4.05252C2.44215 3.10997 3.22318 2.38738 4.18728 2.30484L6.11749 2.13958ZM21.9799 6.37799C22.2279 9.23268 22.1351 12.1089 21.7017 14.9475C21.5578 15.89 20.7768 16.6126 19.8127 16.6952L17.8825 16.8604C13.9682 17.1956 10.0318 17.1956 6.1175 16.8604L4.18728 16.6952C3.22318 16.6126 2.44215 15.89 2.29825 14.9475C1.86486 12.1089 1.77212 9.23271 2.02003 6.37804L8.43095 9.88596C10.6505 11.1005 13.3494 11.1005 15.5689 9.88596L21.9799 6.37799Z" fill="black"/>
</svg>
