<svg width="26" height="26" viewBox="0 0 26 26" fill="none" xmlns="http://www.w3.org/2000/svg">
<path d="M22.3713 3.00205C22.0996 3.02205 21.8329 3.08656 21.5816 3.19306H21.5783C21.3371 3.28986 20.1903 3.77811 18.4468 4.51819L12.199 7.18128C7.71592 9.09145 3.30899 10.9725 3.30899 10.9725L3.36146 10.9519C3.36146 10.9519 3.05762 11.053 2.74024 11.2731C2.54417 11.3994 2.37544 11.5646 2.24428 11.7588C2.08855 11.9901 1.96329 12.3439 2.00984 12.7096C2.08601 13.3281 2.48211 13.699 2.76648 13.9037C3.05424 14.111 3.32845 14.2078 3.32845 14.2078H3.33522L7.46794 15.6168C7.65329 16.219 8.72731 19.7927 8.98545 20.6158C9.13779 21.1075 9.2859 21.415 9.47125 21.6497C9.56096 21.7696 9.66591 21.8698 9.79202 21.9504C9.85757 21.989 9.92747 22.0194 10.0002 22.0412L9.9579 22.0309C9.97059 22.0343 9.98075 22.0446 9.99006 22.048C10.0239 22.0574 10.0468 22.0609 10.0899 22.0677C10.7442 22.2682 11.2697 21.857 11.2697 21.857L11.2994 21.833L13.7394 19.5845L17.8289 22.7598L17.922 22.8001C18.7743 23.1787 19.6376 22.968 20.0938 22.5962C20.5533 22.2219 20.7319 21.7431 20.7319 21.7431L20.7615 21.666L23.9218 5.28054C24.0115 4.87624 24.0344 4.49763 23.9353 4.13016C23.8332 3.75825 23.5975 3.43839 23.2743 3.23332C23.003 3.06639 22.6884 2.98581 22.3713 3.00205ZM22.2858 4.75803C22.2824 4.81199 22.2926 4.806 22.2689 4.90964V4.91906L19.1382 21.134C19.1247 21.1572 19.1018 21.2077 19.0392 21.2583C18.9732 21.3114 18.9207 21.3448 18.6457 21.2343L13.6437 17.3531L10.6223 20.1404L11.257 16.0374L19.4294 8.32824C19.7662 8.0113 19.6537 7.94449 19.6537 7.94449C19.6774 7.5556 19.145 7.83057 19.145 7.83057L8.83987 14.2917L8.83649 14.2746L3.8972 12.5914V12.588L3.88451 12.5854C3.89316 12.5825 3.90164 12.5791 3.9099 12.5751L3.93698 12.5614L3.96322 12.552C3.96322 12.552 8.37354 10.671 12.8566 8.76081C15.1012 7.80401 17.3626 6.84036 19.1018 6.09686C20.8411 5.35763 22.1267 4.81542 22.1995 4.7863C22.2689 4.75888 22.2359 4.75888 22.2858 4.75888V4.75803Z" fill="#6518BF"/>
</svg>
