<svg width="25" height="25" viewBox="0 0 25 25" fill="none" xmlns="http://www.w3.org/2000/svg">
<path d="M12.5122 2.08334C6.77679 2.08334 2.10779 6.74832 2.10571 12.4837C2.10467 14.3171 2.58486 16.1068 3.49528 17.6839L2.08333 22.9167L7.53377 21.6288C9.05356 22.458 10.7644 22.8933 12.5061 22.8943H12.5102C18.2445 22.8943 22.9115 18.2283 22.9146 12.4939C22.9167 9.7137 21.8356 7.09973 19.871 5.13307C17.9064 3.16744 15.2955 2.08439 12.5122 2.08334ZM12.5102 4.16668C14.7352 4.16772 16.8262 5.03522 18.398 6.60605C19.9699 8.17897 20.8334 10.269 20.8313 12.4919C20.8292 17.0794 17.0977 20.811 12.5081 20.811C11.1196 20.8099 9.74417 20.4613 8.53271 19.7998L7.83081 19.4173L7.05566 19.6004L5.00488 20.0846L5.50537 18.2251L5.7312 17.391L5.29988 16.6423C4.5728 15.3839 4.188 13.9452 4.18904 12.4837C4.19113 7.89832 7.92371 4.16668 12.5102 4.16668ZM8.82975 7.6823C8.65579 7.6823 8.37453 7.74741 8.13598 8.00782C7.89744 8.2672 7.22453 8.8954 7.22453 10.1746C7.22453 11.4537 8.15633 12.6902 8.28654 12.8642C8.4157 13.0371 10.0852 15.745 12.7279 16.7867C14.9237 17.6523 15.3697 17.4815 15.8468 17.4378C16.3238 17.395 17.3859 16.8101 17.6025 16.2028C17.8192 15.5955 17.8197 15.0731 17.7551 14.9658C17.6905 14.8575 17.5171 14.7929 17.2567 14.6627C16.9973 14.5325 15.7191 13.9048 15.4805 13.8184C15.242 13.7319 15.0675 13.6882 14.8946 13.9486C14.7217 14.209 14.2248 14.7929 14.0727 14.9658C13.9206 15.1398 13.7695 15.1632 13.5091 15.033C13.2487 14.9017 12.4114 14.6265 11.4176 13.7411C10.6447 13.0525 10.1232 12.203 9.97111 11.9426C9.82007 11.6832 9.95687 11.5407 10.0871 11.4116C10.2037 11.2949 10.3455 11.1079 10.4757 10.9558C10.6048 10.8037 10.6496 10.6954 10.7361 10.5225C10.8225 10.3496 10.7783 10.197 10.7137 10.0667C10.6491 9.93653 10.1434 8.65261 9.91211 8.13803C9.71732 7.70574 9.51159 7.6957 9.32617 7.68841C9.17513 7.68216 9.00267 7.6823 8.82975 7.6823Z" fill="black"/>
</svg>
